<svg width="24" height="24" viewBox="0 0 24 24" fill="none" xmlns="http://www.w3.org/2000/svg">
<path d="M20.8276 14.3681C20.9547 14.5205 21.0162 14.7171 20.9986 14.9148C20.981 15.1125 20.8858 15.2952 20.7338 15.4228C19.1063 16.7709 17.6532 17.25 16.3276 17.25C14.5857 17.25 13.0632 16.424 11.6466 15.6562C9.27008 14.3672 7.21789 13.2534 4.23383 15.7256C4.15862 15.7923 4.07077 15.8432 3.97551 15.8752C3.88025 15.9073 3.77952 15.9198 3.6793 15.9122C3.57908 15.9046 3.48142 15.8768 3.39212 15.8307C3.30282 15.7846 3.2237 15.721 3.15947 15.6437C3.09524 15.5664 3.0472 15.4769 3.01821 15.3807C2.98921 15.2845 2.97986 15.1834 2.99071 15.0835C3.00155 14.9835 3.03236 14.8868 3.08132 14.799C3.13028 14.7113 3.19639 14.6342 3.27571 14.5725C7.04164 11.4534 9.86821 12.9862 12.3629 14.34C14.7395 15.6291 16.7916 16.7419 19.7757 14.2697C19.9286 14.144 20.1249 14.0838 20.3219 14.1023C20.5189 14.1207 20.7007 14.2163 20.8276 14.3681ZM4.23383 9.73124C7.21789 7.25905 9.27008 8.37186 11.6466 9.66092C13.0632 10.4297 14.5857 11.2547 16.3276 11.2547C17.6532 11.2547 19.1063 10.7756 20.7338 9.42749C20.8131 9.36576 20.8793 9.28871 20.9282 9.20094C20.9772 9.11316 21.008 9.01643 21.0188 8.91651C21.0297 8.81659 21.0203 8.7155 20.9913 8.61927C20.9623 8.52303 20.9143 8.4336 20.8501 8.3563C20.7858 8.27899 20.7067 8.21538 20.6174 8.16925C20.5281 8.12313 20.4305 8.09542 20.3302 8.08777C20.23 8.08013 20.1293 8.09271 20.034 8.12476C19.9388 8.15682 19.8509 8.20769 19.7757 8.27436C16.7916 10.7465 14.7395 9.6328 12.3629 8.34374C9.86821 6.99092 7.04164 5.45717 3.27571 8.57624C3.13487 8.7063 3.04918 8.88535 3.03624 9.07662C3.0233 9.26789 3.0841 9.45685 3.20614 9.60469C3.32818 9.75253 3.5022 9.84803 3.69245 9.87156C3.88271 9.8951 4.07476 9.84488 4.22914 9.73124H4.23383Z" fill="black"/>
</svg>
