<svg width="24" height="24" viewBox="0 0 24 24" fill="none" xmlns="http://www.w3.org/2000/svg">
<path d="M2.25 12C2.25 13.9284 2.82183 15.8134 3.89317 17.4168C4.96452 19.0202 6.48726 20.2699 8.26884 21.0078C10.0504 21.7458 12.0108 21.9389 13.9021 21.5627C15.7934 21.1864 17.5307 20.2578 18.8943 18.8943C20.2579 17.5307 21.1865 15.7934 21.5627 13.9021C21.9389 12.0108 21.7458 10.0504 21.0078 8.26883C20.2699 6.48725 19.0202 4.96451 17.4168 3.89317C15.8134 2.82182 13.9284 2.25 12 2.25C9.41498 2.25273 6.93661 3.28083 5.10872 5.10872C3.28084 6.93661 2.25273 9.41497 2.25 12ZM14.7806 8.46937L17.7806 11.4694C17.8504 11.539 17.9057 11.6217 17.9434 11.7128C17.9812 11.8038 18.0006 11.9014 18.0006 12C18.0006 12.0986 17.9812 12.1962 17.9434 12.2872C17.9057 12.3782 17.8504 12.461 17.7806 12.5306L14.7806 15.5306C14.6399 15.6714 14.449 15.7504 14.25 15.7504C14.051 15.7504 13.8601 15.6714 13.7194 15.5306C13.5786 15.3899 13.4996 15.199 13.4996 15C13.4996 14.801 13.5786 14.6101 13.7194 14.4694L16.1897 12L13.7194 9.53062C13.5786 9.38989 13.4996 9.19902 13.4996 9C13.4996 8.80097 13.5786 8.6101 13.7194 8.46937C13.8601 8.32864 14.051 8.24958 14.25 8.24958C14.449 8.24958 14.6399 8.32864 14.7806 8.46937ZM10.2806 8.46937C10.3504 8.53903 10.4057 8.62174 10.4434 8.71279C10.4812 8.80384 10.5006 8.90143 10.5006 9C10.5006 9.09856 10.4812 9.19615 10.4434 9.2872C10.4057 9.37825 10.3504 9.46097 10.2806 9.53062L7.81031 12L10.2806 14.4694C10.4214 14.6101 10.5004 14.801 10.5004 15C10.5004 15.199 10.4214 15.3899 10.2806 15.5306C10.1399 15.6714 9.94902 15.7504 9.75 15.7504C9.55098 15.7504 9.36011 15.6714 9.21937 15.5306L6.21937 12.5306C6.14964 12.461 6.09432 12.3782 6.05658 12.2872C6.01884 12.1962 5.99941 12.0986 5.99941 12C5.99941 11.9014 6.01884 11.8038 6.05658 11.7128C6.09432 11.6217 6.14964 11.539 6.21937 11.4694L9.21937 8.46937C9.28903 8.39964 9.37175 8.34432 9.46279 8.30658C9.55384 8.26883 9.65144 8.24941 9.75 8.24941C9.84856 8.24941 9.94616 8.26883 10.0372 8.30658C10.1283 8.34432 10.211 8.39964 10.2806 8.46937Z" fill="black"/>
</svg>
