<svg width="24" height="24" viewBox="0 0 24 24" fill="none" xmlns="http://www.w3.org/2000/svg">
<path d="M12 2.25C10.0716 2.25 8.18657 2.82183 6.58319 3.89317C4.97982 4.96452 3.73013 6.48726 2.99218 8.26884C2.25422 10.0504 2.06114 12.0108 2.43735 13.9021C2.81355 15.7934 3.74215 17.5307 5.10571 18.8943C6.46928 20.2579 8.20656 21.1865 10.0979 21.5627C11.9892 21.9389 13.9496 21.7458 15.7312 21.0078C17.5127 20.2699 19.0355 19.0202 20.1068 17.4168C21.1782 15.8134 21.75 13.9284 21.75 12C21.7473 9.41498 20.7192 6.93661 18.8913 5.10872C17.0634 3.28084 14.585 2.25273 12 2.25ZM12.75 3.78469C13.2577 3.83102 13.76 3.92519 14.25 4.06594V19.9378C13.76 20.0786 13.2577 20.1727 12.75 20.2191V3.78469ZM15.75 4.65281C16.2845 4.92649 16.7875 5.25784 17.25 5.64094V18.3591C16.7875 18.7422 16.2845 19.0735 15.75 19.3472V4.65281ZM3.75 12C3.75248 9.94257 4.52267 7.96011 5.90984 6.44064C7.29701 4.92117 9.2013 3.97406 11.25 3.78469V20.2153C9.2013 20.0259 7.29701 19.0788 5.90984 17.5594C4.52267 16.0399 3.75248 14.0574 3.75 12ZM18.75 16.7381V7.26187C19.7262 8.64902 20.25 10.3038 20.25 12C20.25 13.6962 19.7262 15.351 18.75 16.7381Z" fill="black"/>
</svg>
