<svg width="24" height="24" viewBox="0 0 24 24" fill="none" xmlns="http://www.w3.org/2000/svg">
<path d="M21 13.5V19.5C21 19.6989 20.921 19.8897 20.7803 20.0303C20.6397 20.171 20.4489 20.25 20.25 20.25H3.75C3.55109 20.25 3.36032 20.171 3.21967 20.0303C3.07902 19.8897 3 19.6989 3 19.5V13.5C3 13.3011 3.07902 13.1103 3.21967 12.9697C3.36032 12.829 3.55109 12.75 3.75 12.75C3.94891 12.75 4.13968 12.829 4.28033 12.9697C4.42098 13.1103 4.5 13.3011 4.5 13.5V18.75H19.5V13.5C19.5 13.3011 19.579 13.1103 19.7197 12.9697C19.8603 12.829 20.0511 12.75 20.25 12.75C20.4489 12.75 20.6397 12.829 20.7803 12.9697C20.921 13.1103 21 13.3011 21 13.5ZM8.78063 7.28064L11.25 4.81032V13.5C11.25 13.6989 11.329 13.8897 11.4697 14.0303C11.6103 14.171 11.8011 14.25 12 14.25C12.1989 14.25 12.3897 14.171 12.5303 14.0303C12.671 13.8897 12.75 13.6989 12.75 13.5V4.81032L15.2194 7.28064C15.3601 7.42137 15.551 7.50043 15.75 7.50043C15.949 7.50043 16.1399 7.42137 16.2806 7.28064C16.4214 7.13991 16.5004 6.94903 16.5004 6.75001C16.5004 6.55099 16.4214 6.36012 16.2806 6.21938L12.5306 2.46939C12.461 2.39965 12.3783 2.34433 12.2872 2.30659C12.1962 2.26885 12.0986 2.24942 12 2.24942C11.9014 2.24942 11.8038 2.26885 11.7128 2.30659C11.6217 2.34433 11.539 2.39965 11.4694 2.46939L7.71937 6.21938C7.57864 6.36012 7.49958 6.55099 7.49958 6.75001C7.49958 6.94903 7.57864 7.13991 7.71937 7.28064C7.86011 7.42137 8.05098 7.50043 8.25 7.50043C8.44902 7.50043 8.63989 7.42137 8.78063 7.28064Z" fill="black"/>
</svg>
